/videos/b70fa011-8944-0796-d0c7-b3ab835056e5/hls1/main/0.ts

{"Protocol":0,"Id":"b70fa01189440796d0c7b3ab835056e5","Path":"/data/tvshows/Come Fly With Me/Season 1/Come Fly With Me - S01E01 - Episode 1 Bluray-1080p.mkv","EncoderPath":null,"EncoderProtocol":null,"Type":0,"Container":"mkv,webm","Size":965052582,"Name":"Come Fly With Me - S01E01 - Episode 1 Bluray-1080p","IsRemote":false,"ETag":"4e8bbdf354f9b4ddca276ac2bea57989","RunTimeTicks":17350080000,"ReadAtNativeFramerate":false,"IgnoreDts":false,"IgnoreIndex":false,"GenPtsInput":false,"SupportsTranscoding":true,"SupportsDirectStream":true,"SupportsDirectPlay":true,"IsInfiniteStream":false,"RequiresOpening":false,"OpenToken":null,"RequiresClosing":false,"LiveStreamId":null,"BufferMs":null,"RequiresLooping":false,"SupportsProbing":true,"VideoType":0,"IsoType":null,"Video3DFormat":null,"MediaStreams":[{"Codec":"hevc","CodecTag":null,"Language":null,"ColorRange":null,"ColorSpace":null,"ColorTransfer":null,"ColorPrimaries":null,"DvVersionMajor":null,"DvVersionMinor":null,"DvProfile":null,"DvLevel":null,"RpuPresentFlag":null,"ElPresentFlag":null,"BlPresentFlag":null,"DvBlSignalCompatibilityId":null,"Comment":null,"TimeBase":"1/1000","CodecTimeBase":null,"Title":null,"VideoRange":"SDR","VideoRangeType":"SDR","VideoDoViTitle":null,"LocalizedUndefined":null,"LocalizedDefault":null,"LocalizedForced":null,"LocalizedExternal":null,"DisplayTitle":"1080p HEVC SDR","NalLengthSize":null,"IsInterlaced":false,"IsAVC":null,"ChannelLayout":null,"BitRate":4449789,"BitDepth":10,"RefFrames":1,"PacketLength":null,"Channels":null,"SampleRate":null,"IsDefault":true,"IsForced":false,"Height":1080,"Width":1920,"AverageFrameRate":25,"RealFrameRate":25,"Profile":"Main 10","Type":1,"AspectRatio":"16:9","Index":0,"Score":null,"IsExternal":false,"DeliveryMethod":null,"DeliveryUrl":null,"IsExternalUrl":null,"IsTextSubtitleStream":false,"SupportsExternalStream":false,"Path":null,"PixelFormat":"yuv420p10le","Level":120,"IsAnamorphic":null},{"Codec":"ac3","CodecTag":null,"Language":"eng","ColorRange":null,"ColorSpace":null,"ColorTransfer":null,"ColorPrimaries":null,"DvVersionMajor":null,"DvVersionMinor":null,"DvProfile":null,"DvLevel":null,"RpuPresentFlag":null,"ElPresentFlag":null,"BlPresentFlag":null,"DvBlSignalCompatibilityId":null,"Comment":null,"TimeBase":"1/1000","CodecTimeBase":null,"Title":null,"VideoRange":null,"VideoRangeType":null,"VideoDoViTitle":null,"LocalizedUndefined":null,"LocalizedDefault":null,"LocalizedForced":null,"LocalizedExternal":null,"DisplayTitle":"English - Dolby Digital - Stereo","NalLengthSize":null,"IsInterlaced":false,"IsAVC":null,"ChannelLayout":"stereo","BitRate":448000,"BitDepth":null,"RefFrames":null,"PacketLength":null,"Channels":2,"SampleRate":48000,"IsDefault":false,"IsForced":false,"Height":null,"Width":null,"AverageFrameRate":null,"RealFrameRate":null,"Profile":null,"Type":0,"AspectRatio":null,"Index":1,"Score":null,"IsExternal":false,"DeliveryMethod":null,"DeliveryUrl":null,"IsExternalUrl":null,"IsTextSubtitleStream":false,"SupportsExternalStream":false,"Path":null,"PixelFormat":null,"Level":0,"IsAnamorphic":null},{"Codec":"PGSSUB","CodecTag":null,"Language":"eng","ColorRange":null,"ColorSpace":null,"ColorTransfer":null,"ColorPrimaries":null,"DvVersionMajor":null,"DvVersionMinor":null,"DvProfile":null,"DvLevel":null,"RpuPresentFlag":null,"ElPresentFlag":null,"BlPresentFlag":null,"DvBlSignalCompatibilityId":null,"Comment":null,"TimeBase":"1/1000","CodecTimeBase":null,"Title":null,"VideoRange":null,"VideoRangeType":null,"VideoDoViTitle":null,"LocalizedUndefined":"Undefined","LocalizedDefault":"Default","LocalizedForced":"Forced","LocalizedExternal":"External","DisplayTitle":"English - PGSSUB","NalLengthSize":null,"IsInterlaced":false,"IsAVC":null,"ChannelLayout":null,"BitRate":null,"BitDepth":null,"RefFrames":null,"PacketLength":null,"Channels":null,"SampleRate":null,"IsDefault":false,"IsForced":false,"Height":null,"Width":null,"AverageFrameRate":null,"RealFrameRate":null,"Profile":null,"Type":2,"AspectRatio":null,"Index":2,"Score":null,"IsExternal":false,"DeliveryMethod":null,"DeliveryUrl":null,"IsExternalUrl":null,"IsTextSubtitleStream":false,"SupportsExternalStream":false,"Path":null,"PixelFormat":null,"Level":0,"IsAnamorphic":null}],"MediaAttachments":[],"Formats":[],"Bitrate":4897789,"Timestamp":null,"RequiredHttpHeaders":{},"TranscodingUrl":null,"TranscodingSubProtocol":null,"TranscodingContainer":null,"AnalyzeDurationMs":null,"DefaultAudioStreamIndex":null,"DefaultSubtitleStreamIndex":null}

/usr/lib/jellyfin-ffmpeg/ffmpeg -analyzeduration 200M -f matroska,webm -autorotate 0 -i file:"/data/tvshows/Come Fly With Me/Season 1/Come Fly With Me - S01E01 - Episode 1 Bluray-1080p.mkv" -map_metadata -1 -map_chapters -1 -threads 0 -map 0:0 -map 0:1 -map -0:s -codec:v:0 libx264 -preset veryfast -crf 23 -maxrate 4449789 -bufsize 8899578 -x264opts:0 subme=0:me_range=4:rc_lookahead=10:me=dia:no_chroma_me:8x8dct=0:partitions=none -force_key_frames:0 "expr:gte(t,0+n_forced*3)" -sc_threshold:v:0 0 -vf "setparams=color_primaries=bt709:color_trc=bt709:colorspace=bt709,scale=trunc(min(max(iw\,ih*a)\,min(1920\,1080*a))/2)*2:trunc(min(max(iw/a\,ih)\,min(1920/a\,1080))/2)*2,format=yuv420p" -codec:a:0 libfdk_aac -ac 2 -ab 256000 -copyts -avoid_negative_ts disabled -max_muxing_queue_size 2048 -f hls -max_delay 5000000 -hls_time 3 -hls_segment_type mpegts -start_number 0 -hls_segment_filename "/config/data/transcodes/9058a056364b215e8ab7bf46499b8bb1%d.ts" -hls_playlist_type vod -hls_list_size 0 -y "/config/data/transcodes/9058a056364b215e8ab7bf46499b8bb1.m3u8"


ffmpeg version 5.1.3-Jellyfin Copyright (c) 2000-2022 the FFmpeg developers
  built with gcc 11 (Ubuntu 11.3.0-1ubuntu1~22.04.1)
  configuration: --prefix=/usr/lib/jellyfin-ffmpeg --target-os=linux --extra-libs=-lfftw3f --extra-version=Jellyfin --disable-doc --disable-ffplay --disable-ptx-compression --disable-static --disable-libxcb --disable-sdl2 --disable-xlib --enable-lto --enable-gpl --enable-version3 --enable-shared --enable-gmp --enable-gnutls --enable-chromaprint --enable-libdrm --enable-libass --enable-libfreetype --enable-libfribidi --enable-libfontconfig --enable-libbluray --enable-libmp3lame --enable-libopus --enable-libtheora --enable-libvorbis --enable-libopenmpt --enable-libdav1d --enable-libwebp --enable-libvpx --enable-libx264 --enable-libx265 --enable-libzvbi --enable-libzimg --enable-libfdk-aac --arch=amd64 --enable-libsvtav1 --enable-libshaderc --enable-libplacebo --enable-vulkan --enable-opencl --enable-vaapi --enable-amf --enable-libmfx --enable-ffnvcodec --enable-cuda --enable-cuda-llvm --enable-cuvid --enable-nvdec --enable-nvenc
  libavutil      57. 28.100 / 57. 28.100
  libavcodec     59. 37.100 / 59. 37.100
  libavformat    59. 27.100 / 59. 27.100
  libavdevice    59.  7.100 / 59.  7.100
  libavfilter     8. 44.100 /  8. 44.100
  libswscale      6.  7.100 /  6.  7.100
  libswresample   4.  7.100 /  4.  7.100
  libpostproc    56.  6.100 / 56.  6.100
Input #0, matroska,webm, from 'file:/data/tvshows/Come Fly With Me/Season 1/Come Fly With Me - S01E01 - Episode 1 Bluray-1080p.mkv':
  Metadata:
    title           : Come Fly With Me Disc 1
    encoder         : libebml v1.3.5 + libmatroska v1.4.8
    creation_time   : 2020-09-25T16:10:02.000000Z
  Duration: 00:28:55.01, start: 0.000000, bitrate: 4449 kb/s
  Chapters:
    Chapter #0:0: start 0.000000, end 533.400000
      Metadata:
        title           : Chapter 01
    Chapter #0:1: start 533.400000, end 888.240000
      Metadata:
        title           : Chapter 02
    Chapter #0:2: start 888.240000, end 1262.200000
      Metadata:
        title           : Chapter 03
    Chapter #0:3: start 1262.200000, end 1735.008000
      Metadata:
        title           : Chapter 04
  Stream #0:0: Video: hevc (Main 10), yuv420p10le(tv), 1920x1080, SAR 1:1 DAR 16:9, 25 fps, 25 tbr, 1k tbn (default)
    Metadata:
      BPS             : 3977946
      BPS-eng         : 3977946
      DURATION        : 00:28:55.000000000
      DURATION-eng    : 00:28:55.000000000
      NUMBER_OF_FRAMES: 43375
      NUMBER_OF_FRAMES-eng: 43375
      NUMBER_OF_BYTES : 862717087
      NUMBER_OF_BYTES-eng: 862717087
      _STATISTICS_WRITING_APP: mkvmerge v20.0.0 ('I Am The Sun') 64-bit
      _STATISTICS_WRITING_APP-eng: mkvmerge v20.0.0 ('I Am The Sun') 64-bit
      _STATISTICS_WRITING_DATE_UTC: 2020-09-25 16:10:02
      _STATISTICS_WRITING_DATE_UTC-eng: 2020-09-25 16:10:02
      _STATISTICS_TAGS: BPS DURATION NUMBER_OF_FRAMES NUMBER_OF_BYTES
      _STATISTICS_TAGS-eng: BPS DURATION NUMBER_OF_FRAMES NUMBER_OF_BYTES
  Stream #0:1(eng): Audio: ac3, 48000 Hz, stereo, fltp, 448 kb/s
    Metadata:
      BPS             : 448000
      BPS-eng         : 448000
      DURATION        : 00:28:55.008000000
      DURATION-eng    : 00:28:55.008000000
      NUMBER_OF_FRAMES: 54219
      NUMBER_OF_FRAMES-eng: 54219
      NUMBER_OF_BYTES : 97160448
      NUMBER_OF_BYTES-eng: 97160448
      _STATISTICS_WRITING_APP: mkvmerge v20.0.0 ('I Am The Sun') 64-bit
      _STATISTICS_WRITING_APP-eng: mkvmerge v20.0.0 ('I Am The Sun') 64-bit
      _STATISTICS_WRITING_DATE_UTC: 2020-09-25 16:10:02
      _STATISTICS_WRITING_DATE_UTC-eng: 2020-09-25 16:10:02
      _STATISTICS_TAGS: BPS DURATION NUMBER_OF_FRAMES NUMBER_OF_BYTES
      _STATISTICS_TAGS-eng: BPS DURATION NUMBER_OF_FRAMES NUMBER_OF_BYTES
  Stream #0:2(eng): Subtitle: hdmv_pgs_subtitle, 1920x1080
    Metadata:
      BPS             : 78011
      BPS-eng         : 78011
      DURATION        : 00:28:19.000000000
      DURATION-eng    : 00:28:19.000000000
      NUMBER_OF_FRAMES: 1136
      NUMBER_OF_FRAMES-eng: 1136
      NUMBER_OF_BYTES : 16567622
      NUMBER_OF_BYTES-eng: 16567622
      _STATISTICS_WRITING_APP: mkvmerge v20.0.0 ('I Am The Sun') 64-bit
      _STATISTICS_WRITING_APP-eng: mkvmerge v20.0.0 ('I Am The Sun') 64-bit
      _STATISTICS_WRITING_DATE_UTC: 2020-09-25 16:10:02
      _STATISTICS_WRITING_DATE_UTC-eng: 2020-09-25 16:10:02
      _STATISTICS_TAGS: BPS DURATION NUMBER_OF_FRAMES NUMBER_OF_BYTES
      _STATISTICS_TAGS-eng: BPS DURATION NUMBER_OF_FRAMES NUMBER_OF_BYTES
Stream mapping:
  Stream #0:0 -> #0:0 (hevc (native) -> h264 (libx264))
  Stream #0:1 -> #0:1 (ac3 (native) -> aac (libfdk_aac))
Press [q] to stop, [?] for help
[libx264 @ 0x556c5f0eb0c0] using SAR=1/1
[libx264 @ 0x556c5f0eb0c0] using cpu capabilities: MMX2 SSE2Fast SSSE3 SSE4.2 AVX FMA3 BMI2 AVX2
[libx264 @ 0x556c5f0eb0c0] profile Main, level 4.0, 4:2:0, 8-bit
[libx264 @ 0x556c5f0eb0c0] 264 - core 163 r3060 5db6aa6 - H.264/MPEG-4 AVC codec - Copyleft 2003-2021 - http://www.videolan.org/x264.html - options: cabac=1 ref=1 deblock=1:0:0 analyse=0x1:0 me=dia subme=0 psy=1 psy_rd=1.00:0.00 mixed_ref=0 me_range=4 chroma_me=0 trellis=0 8x8dct=0 cqm=0 deadzone=21,11 fast_pskip=1 chroma_qp_offset=0 threads=6 lookahead_threads=1 sliced_threads=0 nr=0 decimate=1 interlaced=0 bluray_compat=0 constrained_intra=0 bframes=3 b_pyramid=2 b_adapt=1 b_bias=0 direct=1 weightb=1 open_gop=0 weightp=1 keyint=250 keyint_min=25 scenecut=0 intra_refresh=0 rc_lookahead=10 rc=crf mbtree=1 crf=23.0 qcomp=0.60 qpmin=0 qpmax=69 qpstep=4 vbv_maxrate=4449 vbv_bufsize=8899 crf_max=0.0 nal_hrd=none filler=0 ip_ratio=1.40 aq=1:1.00
Output #0, hls, to '/config/data/transcodes/9058a056364b215e8ab7bf46499b8bb1.m3u8':
  Metadata:
    encoder         : Lavf59.27.100
  Stream #0:0: Video: h264, yuv420p(tv, bt709, progressive), 1920x1080 [SAR 1:1 DAR 16:9], q=2-31, 25 fps, 90k tbn (default)
    Metadata:
      encoder         : Lavc59.37.100 libx264
    Side data:
      cpb: bitrate max/min/avg: 4449000/0/0 buffer size: 8899000 vbv_delay: N/A
  Stream #0:1: Audio: aac, 48000 Hz, stereo, s16, 256 kb/s
    Metadata:
      encoder         : Lavc59.37.100 libfdk_aac
frame=    1 fps=0.7 q=0.0 size=N/A time=00:00:00.00 bitrate=N/A speed=   0x    
frame=    2 fps=0.3 q=0.0 size=N/A time=00:00:00.00 bitrate=N/A speed=   0x    
frame=    3 fps=0.4 q=0.0 size=N/A time=00:00:00.00 bitrate=N/A speed=   0x    
frame=    4 fps=0.4 q=0.0 size=N/A time=00:00:00.00 bitrate=N/A speed=   0x    
frame=    4 fps=0.4 q=0.0 size=N/A time=00:00:00.04 bitrate=N/A speed=0.00445x    
frame=    6 fps=0.6 q=0.0 size=N/A time=00:00:00.25 bitrate=N/A speed=0.0239x    
frame=    7 fps=0.5 q=0.0 size=N/A time=00:00:00.25 bitrate=N/A speed=0.0191x    
frame=    8 fps=0.6 q=0.0 size=N/A time=00:00:00.25 bitrate=N/A speed=0.0179x    
frame=    9 fps=0.6 q=0.0 size=N/A time=00:00:00.25 bitrate=N/A speed=0.0171x    
frame=   10 fps=0.6 q=0.0 size=N/A time=00:00:00.25 bitrate=N/A speed=0.0163x    
frame=   12 fps=0.7 q=0.0 size=N/A time=00:00:00.25 bitrate=N/A speed=0.0157x    
frame=   13 fps=0.8 q=0.0 size=N/A time=00:00:00.29 bitrate=N/A speed=0.0177x    
frame=   16 fps=0.9 q=0.0 size=N/A time=00:00:00.51 bitrate=N/A speed=0.0292x    
frame=   18 fps=0.9 q=0.0 size=N/A time=00:00:00.51 bitrate=N/A speed=0.0264x    
frame=   19 fps=0.9 q=0.0 size=N/A time=00:00:00.51 bitrate=N/A speed=0.0255x    
frame=   20 fps=0.9 q=0.0 size=N/A time=00:00:00.55 bitrate=N/A speed=0.0256x    
frame=   22 fps=1.0 q=28.0 size=N/A time=00:00:00.76 bitrate=N/A speed=0.0336x    
frame=   27 fps=1.2 q=28.0 size=N/A time=00:00:00.81 bitrate=N/A speed=0.0346x    
frame=   33 fps=1.4 q=28.0 size=N/A time=00:00:01.06 bitrate=N/A speed=0.0443x    
frame=   39 fps=1.6 q=28.0 size=N/A time=00:00:01.28 bitrate=N/A speed=0.0519x    
frame=   51 fps=2.0 q=28.0 size=N/A time=00:00:01.83 bitrate=N/A speed=0.0727x    
frame=   64 fps=2.5 q=28.0 size=N/A time=00:00:02.30 bitrate=N/A speed=0.0894x    
frame=   78 fps=3.0 q=28.0 size=N/A time=00:00:03.11 bitrate=N/A speed=0.118x    
frame=   83 fps=3.1 q=28.0 size=N/A time=00:00:03.37 bitrate=N/A speed=0.125x    
frame=   93 fps=3.4 q=28.0 size=N/A time=00:00:03.49 bitrate=N/A speed=0.128x    
[hls @ 0x556c5f0efb00] Opening '/config/data/transcodes/9058a056364b215e8ab7bf46499b8bb10.ts' for writing
frame=   99 fps=3.6 q=28.0 size=N/A time=00:00:04.01 bitrate=N/A speed=0.144x    
frame=  107 fps=3.8 q=28.0 size=N/A time=00:00:04.26 bitrate=N/A speed=0.15x    
frame=  112 fps=3.8 q=28.0 size=N/A time=00:00:04.26 bitrate=N/A speed=0.146x    
frame=  118 fps=4.0 q=28.0 size=N/A time=00:00:04.52 bitrate=N/A speed=0.152x    
frame=  124 fps=4.1 q=32.0 size=N/A time=00:00:04.77 bitrate=N/A speed=0.157x    
frame=  131 fps=4.2 q=36.0 size=N/A time=00:00:05.03 bitrate=N/A speed=0.163x    
frame=  135 fps=4.3 q=37.0 size=N/A time=00:00:05.29 bitrate=N/A speed=0.167x    
frame=  143 fps=4.5 q=38.0 size=N/A time=00:00:05.54 bitrate=N/A speed=0.173x    
frame=  149 fps=4.6 q=38.0 size=N/A time=00:00:05.80 bitrate=N/A speed=0.178x    
frame=  154 fps=4.6 q=37.0 size=N/A time=00:00:06.05 bitrate=N/A speed=0.183x    
frame=  162 fps=4.8 q=36.0 size=N/A time=00:00:06.44 bitrate=N/A speed=0.191x    
frame=  167 fps=4.9 q=33.0 size=N/A time=00:00:06.65 bitrate=N/A speed=0.195x    
[hls @ 0x556c5f0efb00] Opening '/config/data/transcodes/9058a056364b215e8ab7bf46499b8bb11.ts' for writing
frame=  171 fps=4.9 q=32.0 size=N/A time=00:00:06.72 bitrate=N/A speed=0.192x    
frame=  181 fps=5.1 q=28.0 size=N/A time=00:00:06.97 bitrate=N/A speed=0.196x    
frame=  193 fps=5.3 q=28.0 size=N/A time=00:00:07.72 bitrate=N/A speed=0.214x    
frame=  196 fps=5.4 q=28.0 size=N/A time=00:00:07.72 bitrate=N/A speed=0.211x    
frame=  204 fps=5.5 q=28.0 size=N/A time=00:00:07.97 bitrate=N/A speed=0.215x    
frame=  210 fps=5.6 q=28.0 size=N/A time=00:00:08.23 bitrate=N/A speed=0.219x    
frame=  217 fps=5.7 q=29.0 size=N/A time=00:00:08.49 bitrate=N/A speed=0.222x    
frame=  222 fps=5.7 q=33.0 size=N/A time=00:00:08.74 bitrate=N/A speed=0.226x    
frame=  228 fps=5.8 q=32.0 size=N/A time=00:00:08.87 bitrate=N/A speed=0.226x    
frame=  238 fps=6.0 q=32.0 size=N/A time=00:00:09.34 bitrate=N/A speed=0.235x    
[hls @ 0x556c5f0efb00] Opening '/config/data/transcodes/9058a056364b215e8ab7bf46499b8bb12.ts' for writing
frame=  246 fps=6.1 q=28.0 size=N/A time=00:00:09.64 bitrate=N/A speed=0.238x    
frame=  257 fps=6.3 q=28.0 size=N/A time=00:00:10.11 bitrate=N/A speed=0.246x    
frame=  265 fps=6.4 q=29.0 size=N/A time=00:00:10.79 bitrate=N/A speed=0.26x    
frame=  272 fps=6.5 q=35.0 size=N/A time=00:00:10.79 bitrate=N/A speed=0.257x    
frame=  282 fps=6.6 q=29.0 size=N/A time=00:00:11.05 bitrate=N/A speed=0.26x    
frame=  288 fps=6.7 q=28.0 size=N/A time=00:00:11.56 bitrate=N/A speed=0.269x    
frame=  298 fps=6.8 q=28.0 size=N/A time=00:00:11.81 bitrate=N/A speed=0.271x    
frame=  304 fps=6.9 q=29.0 size=N/A time=00:00:12.07 bitrate=N/A speed=0.274x    
frame=  312 fps=7.0 q=30.0 size=N/A time=00:00:12.33 bitrate=N/A speed=0.276x    
frame=  318 fps=7.0 q=28.0 size=N/A time=00:00:12.45 bitrate=N/A speed=0.276x    
[hls @ 0x556c5f0efb00] Opening '/config/data/transcodes/9058a056364b215e8ab7bf46499b8bb13.ts' for writing
frame=  322 fps=7.1 q=28.0 size=N/A time=00:00:12.71 bitrate=N/A speed=0.279x    
frame=  329 fps=7.1 q=28.0 size=N/A time=00:00:12.97 bitrate=N/A speed=0.28x    
frame=  333 fps=7.1 q=28.0 size=N/A time=00:00:13.22 bitrate=N/A speed=0.283x    
frame=  338 fps=7.1 q=28.0 size=N/A time=00:00:13.48 bitrate=N/A speed=0.285x    
frame=  344 fps=7.2 q=30.0 size=N/A time=00:00:13.56 bitrate=N/A speed=0.283x    
frame=  351 fps=7.2 q=34.0 size=N/A time=00:00:13.82 bitrate=N/A speed=0.284x    
frame=  357 fps=7.2 q=29.0 size=N/A time=00:00:14.08 bitrate=N/A speed=0.285x    
frame=  361 fps=7.2 q=28.0 size=N/A time=00:00:14.33 bitrate=N/A speed=0.287x    
frame=  366 fps=7.3 q=29.0 size=N/A time=00:00:14.59 bitrate=N/A speed=0.29x    
frame=  370 fps=7.3 q=29.0 size=N/A time=00:00:14.63 bitrate=N/A speed=0.287x    
frame=  376 fps=7.3 q=28.0 size=N/A time=00:00:14.84 bitrate=N/A speed=0.289x    
frame=  379 fps=7.3 q=28.0 size=N/A time=00:00:15.10 bitrate=N/A speed=0.29x    
frame=  384 fps=7.3 q=28.0 size=N/A time=00:00:15.10 bitrate=N/A speed=0.287x    
frame=  392 fps=7.4 q=28.0 size=N/A time=00:00:15.46 bitrate=N/A speed=0.291x    
[hls @ 0x556c5f0efb00] Opening '/config/data/transcodes/9058a056364b215e8ab7bf46499b8bb14.ts' for writing
frame=  397 fps=7.4 q=28.0 size=N/A time=00:00:16.00 bitrate=N/A speed=0.297x    
frame=  405 fps=7.5 q=28.0 size=N/A time=00:00:16.25 bitrate=N/A speed=0.299x    
frame=  412 fps=7.5 q=28.0 size=N/A time=00:00:16.29 bitrate=N/A speed=0.297x    
frame=  418 fps=7.5 q=28.0 size=N/A time=00:00:16.55 bitrate=N/A speed=0.299x    
frame=  424 fps=7.6 q=28.0 size=N/A time=00:00:16.76 bitrate=N/A speed=0.299x    

[q] command received. Exiting.

[hls @ 0x556c5f0efb00] Opening '/config/data/transcodes/9058a056364b215e8ab7bf46499b8bb15.ts' for writing
frame=  428 fps=7.5 q=-1.0 Lsize=N/A time=00:00:17.06 bitrate=N/A speed= 0.3x    
video:8326kB audio:548kB subtitle:0kB other streams:0kB global headers:0kB muxing overhead: unknown
[libx264 @ 0x556c5f0eb0c0] frame I:6     Avg QP:19.24  size: 68638
[libx264 @ 0x556c5f0eb0c0] frame P:175   Avg QP:26.17  size: 33121
[libx264 @ 0x556c5f0eb0c0] frame B:247   Avg QP:25.45  size:  9383
[libx264 @ 0x556c5f0eb0c0] consecutive B-frames: 18.5%  9.8% 11.9% 59.8%
[libx264 @ 0x556c5f0eb0c0] mb I  I16..4: 65.5%  0.0% 34.5%
[libx264 @ 0x556c5f0eb0c0] mb P  I16..4: 42.3%  0.0%  0.0%  P16..4: 25.7%  0.0%  0.0%  0.0%  0.0%    skip:32.1%
[libx264 @ 0x556c5f0eb0c0] mb B  I16..4:  5.6%  0.0%  0.0%  B16..8: 14.8%  0.0%  0.0%  direct: 5.7%  skip:74.0%  L0:39.6% L1:49.6% BI:10.8%
[libx264 @ 0x556c5f0eb0c0] coded y,uvDC,uvAC intra: 35.8% 27.8% 6.5% inter: 8.0% 7.1% 0.2%
[libx264 @ 0x556c5f0eb0c0] i16 v,h,dc,p: 32% 30% 19% 20%
[libx264 @ 0x556c5f0eb0c0] i4 v,h,dc,ddl,ddr,vr,hd,vl,hu: 26% 30% 14%  6%  5%  4%  7%  4%  5%
[libx264 @ 0x556c5f0eb0c0] i8c dc,h,v,p: 51% 23% 20%  5%
[libx264 @ 0x556c5f0eb0c0] Weighted P-Frames: Y:13.7% UV:5.1%
[libx264 @ 0x556c5f0eb0c0] kb/s:3983.87